<svg id="visual" viewBox="0 0 1920 1080" width="1920" height="1080" xmlns="http://www.w3.org/2000/svg" xmlns:xlink="http://www.w3.org/1999/xlink" version="1.1"><rect x="0" y="0" width="1920" height="1080" fill="#140021"></rect><path d="M0 906L83 906L83 991L167 991L167 1006L250 1006L250 1015L334 1015L334 960L417 960L417 1017L501 1017L501 982L584 982L584 922L668 922L668 973L751 973L751 1009L835 1009L835 997L918 997L918 1013L1002 1013L1002 951L1085 951L1085 909L1169 909L1169 984L1252 984L1252 1009L1336 1009L1336 977L1419 977L1419 909L1503 909L1503 992L1586 992L1586 1002L1670 1002L1670 1025L1753 1025L1753 925L1837 925L1837 1026L1920 1026L1920 993L1920 0L1920 0L1837 0L1837 0L1753 0L1753 0L1670 0L1670 0L1586 0L1586 0L1503 0L1503 0L1419 0L1419 0L1336 0L1336 0L1252 0L1252 0L1169 0L1169 0L1085 0L1085 0L1002 0L1002 0L918 0L918 0L835 0L835 0L751 0L751 0L668 0L668 0L584 0L584 0L501 0L501 0L417 0L417 0L334 0L334 0L250 0L250 0L167 0L167 0L83 0L83 0L0 0Z" fill="#560090"></path><path d="M0 888L83 888L83 860L167 860L167 893L250 893L250 880L334 880L334 926L417 926L417 902L501 902L501 828L584 828L584 891L668 891L668 916L751 916L751 927L835 927L835 872L918 872L918 819L1002 819L1002 855L1085 855L1085 843L1169 843L1169 846L1252 846L1252 832L1336 832L1336 843L1419 843L1419 855L1503 855L1503 920L1586 920L1586 843L1670 843L1670 872L1753 872L1753 852L1837 852L1837 851L1920 851L1920 813L1920 0L1920 0L1837 0L1837 0L1753 0L1753 0L1670 0L1670 0L1586 0L1586 0L1503 0L1503 0L1419 0L1419 0L1336 0L1336 0L1252 0L1252 0L1169 0L1169 0L1085 0L1085 0L1002 0L1002 0L918 0L918 0L835 0L835 0L751 0L751 0L668 0L668 0L584 0L584 0L501 0L501 0L417 0L417 0L334 0L334 0L250 0L250 0L167 0L167 0L83 0L83 0L0 0Z" fill="#6a00b1"></path><path d="M0 720L83 720L83 738L167 738L167 704L250 704L250 699L334 699L334 709L417 709L417 713L501 713L501 790L584 790L584 703L668 703L668 815L751 815L751 720L835 720L835 720L918 720L918 726L1002 726L1002 721L1085 721L1085 739L1169 739L1169 815L1252 815L1252 782L1336 782L1336 747L1419 747L1419 727L1503 727L1503 767L1586 767L1586 698L1670 698L1670 740L1753 740L1753 711L1837 711L1837 784L1920 784L1920 799L1920 0L1920 0L1837 0L1837 0L1753 0L1753 0L1670 0L1670 0L1586 0L1586 0L1503 0L1503 0L1419 0L1419 0L1336 0L1336 0L1252 0L1252 0L1169 0L1169 0L1085 0L1085 0L1002 0L1002 0L918 0L918 0L835 0L835 0L751 0L751 0L668 0L668 0L584 0L584 0L501 0L501 0L417 0L417 0L334 0L334 0L250 0L250 0L167 0L167 0L83 0L83 0L0 0Z" fill="#7f00d4"></path><path d="M0 680L83 680L83 711L167 711L167 685L250 685L250 619L334 619L334 648L417 648L417 605L501 605L501 683L584 683L584 702L668 702L668 685L751 685L751 622L835 622L835 647L918 647L918 707L1002 707L1002 657L1085 657L1085 657L1169 657L1169 653L1252 653L1252 637L1336 637L1336 639L1419 639L1419 610L1503 610L1503 650L1586 650L1586 685L1670 685L1670 634L1753 634L1753 682L1837 682L1837 674L1920 674L1920 612L1920 0L1920 0L1837 0L1837 0L1753 0L1753 0L1670 0L1670 0L1586 0L1586 0L1503 0L1503 0L1419 0L1419 0L1336 0L1336 0L1252 0L1252 0L1169 0L1169 0L1085 0L1085 0L1002 0L1002 0L918 0L918 0L835 0L835 0L751 0L751 0L668 0L668 0L584 0L584 0L501 0L501 0L417 0L417 0L334 0L334 0L250 0L250 0L167 0L167 0L83 0L83 0L0 0Z" fill="#9500f8"></path><path d="M0 484L83 484L83 521L167 521L167 562L250 562L250 524L334 524L334 573L417 573L417 582L501 582L501 519L584 519L584 579L668 579L668 539L751 539L751 496L835 496L835 550L918 550L918 531L1002 531L1002 537L1085 537L1085 483L1169 483L1169 533L1252 533L1252 592L1336 592L1336 492L1419 492L1419 571L1503 571L1503 498L1586 498L1586 484L1670 484L1670 569L1753 569L1753 566L1837 566L1837 557L1920 557L1920 481L1920 0L1920 0L1837 0L1837 0L1753 0L1753 0L1670 0L1670 0L1586 0L1586 0L1503 0L1503 0L1419 0L1419 0L1336 0L1336 0L1252 0L1252 0L1169 0L1169 0L1085 0L1085 0L1002 0L1002 0L918 0L918 0L835 0L835 0L751 0L751 0L668 0L668 0L584 0L584 0L501 0L501 0L417 0L417 0L334 0L334 0L250 0L250 0L167 0L167 0L83 0L83 0L0 0Z" fill="#9900ff"></path><path d="M0 423L83 423L83 438L167 438L167 471L250 471L250 419L334 419L334 492L417 492L417 455L501 455L501 439L584 439L584 379L668 379L668 415L751 415L751 368L835 368L835 399L918 399L918 486L1002 486L1002 480L1085 480L1085 371L1169 371L1169 382L1252 382L1252 455L1336 455L1336 375L1419 375L1419 488L1503 488L1503 401L1586 401L1586 400L1670 400L1670 432L1753 432L1753 409L1837 409L1837 494L1920 494L1920 483L1920 0L1920 0L1837 0L1837 0L1753 0L1753 0L1670 0L1670 0L1586 0L1586 0L1503 0L1503 0L1419 0L1419 0L1336 0L1336 0L1252 0L1252 0L1169 0L1169 0L1085 0L1085 0L1002 0L1002 0L918 0L918 0L835 0L835 0L751 0L751 0L668 0L668 0L584 0L584 0L501 0L501 0L417 0L417 0L334 0L334 0L250 0L250 0L167 0L167 0L83 0L83 0L0 0Z" fill="#9500f8"></path><path d="M0 280L83 280L83 269L167 269L167 339L250 339L250 269L334 269L334 353L417 353L417 287L501 287L501 274L584 274L584 315L668 315L668 320L751 320L751 362L835 362L835 335L918 335L918 342L1002 342L1002 359L1085 359L1085 264L1169 264L1169 267L1252 267L1252 300L1336 300L1336 364L1419 364L1419 299L1503 299L1503 285L1586 285L1586 292L1670 292L1670 269L1753 269L1753 378L1837 378L1837 348L1920 348L1920 346L1920 0L1920 0L1837 0L1837 0L1753 0L1753 0L1670 0L1670 0L1586 0L1586 0L1503 0L1503 0L1419 0L1419 0L1336 0L1336 0L1252 0L1252 0L1169 0L1169 0L1085 0L1085 0L1002 0L1002 0L918 0L918 0L835 0L835 0L751 0L751 0L668 0L668 0L584 0L584 0L501 0L501 0L417 0L417 0L334 0L334 0L250 0L250 0L167 0L167 0L83 0L83 0L0 0Z" fill="#7f00d4"></path><path d="M0 150L83 150L83 168L167 168L167 172L250 172L250 242L334 242L334 156L417 156L417 193L501 193L501 203L584 203L584 243L668 243L668 253L751 253L751 194L835 194L835 203L918 203L918 197L1002 197L1002 255L1085 255L1085 272L1169 272L1169 160L1252 160L1252 176L1336 176L1336 151L1419 151L1419 159L1503 159L1503 272L1586 272L1586 221L1670 221L1670 216L1753 216L1753 225L1837 225L1837 172L1920 172L1920 248L1920 0L1920 0L1837 0L1837 0L1753 0L1753 0L1670 0L1670 0L1586 0L1586 0L1503 0L1503 0L1419 0L1419 0L1336 0L1336 0L1252 0L1252 0L1169 0L1169 0L1085 0L1085 0L1002 0L1002 0L918 0L918 0L835 0L835 0L751 0L751 0L668 0L668 0L584 0L584 0L501 0L501 0L417 0L417 0L334 0L334 0L250 0L250 0L167 0L167 0L83 0L83 0L0 0Z" fill="#6a00b1"></path><path d="M0 88L83 88L83 122L167 122L167 71L250 71L250 82L334 82L334 139L417 139L417 74L501 74L501 93L584 93L584 85L668 85L668 81L751 81L751 108L835 108L835 62L918 62L918 146L1002 146L1002 46L1085 46L1085 122L1169 122L1169 133L1252 133L1252 156L1336 156L1336 110L1419 110L1419 128L1503 128L1503 141L1586 141L1586 148L1670 148L1670 88L1753 88L1753 47L1837 47L1837 127L1920 127L1920 162L1920 0L1920 0L1837 0L1837 0L1753 0L1753 0L1670 0L1670 0L1586 0L1586 0L1503 0L1503 0L1419 0L1419 0L1336 0L1336 0L1252 0L1252 0L1169 0L1169 0L1085 0L1085 0L1002 0L1002 0L918 0L918 0L835 0L835 0L751 0L751 0L668 0L668 0L584 0L584 0L501 0L501 0L417 0L417 0L334 0L334 0L250 0L250 0L167 0L167 0L83 0L83 0L0 0Z" fill="#560090"></path></svg>