<svg id="visual" viewBox="0 0 2560 1400" width="2560" height="1400" xmlns="http://www.w3.org/2000/svg" xmlns:xlink="http://www.w3.org/1999/xlink" version="1.1"><path d="M0 57L35.5 54.7C71 52.3 142 47.7 213.2 50C284.3 52.3 355.7 61.7 426.8 71C498 80.3 569 89.7 640 85C711 80.3 782 61.7 853.2 52.3C924.3 43 995.7 43 1066.8 45.3C1138 47.7 1209 52.3 1280 50C1351 47.7 1422 38.3 1493.2 38.3C1564.3 38.3 1635.7 47.7 1706.8 57C1778 66.3 1849 75.7 1920 73.3C1991 71 2062 57 2133.2 61.7C2204.3 66.3 2275.7 89.7 2346.8 87.3C2418 85 2489 57 2524.5 43L2560 29L2560 0L2524.5 0C2489 0 2418 0 2346.8 0C2275.7 0 2204.3 0 2133.2 0C2062 0 1991 0 1920 0C1849 0 1778 0 1706.8 0C1635.7 0 1564.3 0 1493.2 0C1422 0 1351 0 1280 0C1209 0 1138 0 1066.8 0C995.7 0 924.3 0 853.2 0C782 0 711 0 640 0C569 0 498 0 426.8 0C355.7 0 284.3 0 213.2 0C142 0 71 0 35.5 0L0 0Z" fill="#0c0a0a"></path><path d="M0 127L35.5 124.7C71 122.3 142 117.7 213.2 124.7C284.3 131.7 355.7 150.3 426.8 162C498 173.7 569 178.3 640 162C711 145.7 782 108.3 853.2 101.3C924.3 94.3 995.7 117.7 1066.8 122.3C1138 127 1209 113 1280 106C1351 99 1422 99 1493.2 96.7C1564.3 94.3 1635.7 89.7 1706.8 103.7C1778 117.7 1849 150.3 1920 150.3C1991 150.3 2062 117.7 2133.2 110.7C2204.3 103.7 2275.7 122.3 2346.8 124.7C2418 127 2489 113 2524.5 106L2560 99L2560 27L2524.5 41C2489 55 2418 83 2346.8 85.3C2275.7 87.7 2204.3 64.3 2133.2 59.7C2062 55 1991 69 1920 71.3C1849 73.7 1778 64.3 1706.8 55C1635.7 45.7 1564.3 36.3 1493.2 36.3C1422 36.3 1351 45.7 1280 48C1209 50.3 1138 45.7 1066.8 43.3C995.7 41 924.3 41 853.2 50.3C782 59.7 711 78.3 640 83C569 87.7 498 78.3 426.8 69C355.7 59.7 284.3 50.3 213.2 48C142 45.7 71 50.3 35.5 52.7L0 55Z" fill="#110f0f"></path><path d="M0 365L35.5 374.3C71 383.7 142 402.3 213.2 423.3C284.3 444.3 355.7 467.7 426.8 472.3C498 477 569 463 640 444.3C711 425.7 782 402.3 853.2 388.3C924.3 374.3 995.7 369.7 1066.8 386C1138 402.3 1209 439.7 1280 437.3C1351 435 1422 393 1493.2 358C1564.3 323 1635.7 295 1706.8 311.3C1778 327.7 1849 388.3 1920 390.7C1991 393 2062 337 2133.2 323C2204.3 309 2275.7 337 2346.8 334.7C2418 332.3 2489 299.7 2524.5 283.3L2560 267L2560 97L2524.5 104C2489 111 2418 125 2346.8 122.7C2275.7 120.3 2204.3 101.7 2133.2 108.7C2062 115.7 1991 148.3 1920 148.3C1849 148.3 1778 115.7 1706.8 101.7C1635.7 87.7 1564.3 92.3 1493.2 94.7C1422 97 1351 97 1280 104C1209 111 1138 125 1066.8 120.3C995.7 115.7 924.3 92.3 853.2 99.3C782 106.3 711 143.7 640 160C569 176.3 498 171.7 426.8 160C355.7 148.3 284.3 129.7 213.2 122.7C142 115.7 71 120.3 35.5 122.7L0 125Z" fill="#151313"></path><path d="M0 463L35.5 488.7C71 514.3 142 565.7 213.2 607.7C284.3 649.7 355.7 682.3 426.8 673C498 663.7 569 612.3 640 579.7C711 547 782 533 853.2 547C924.3 561 995.7 603 1066.8 617C1138 631 1209 617 1280 586.7C1351 556.3 1422 509.7 1493.2 470C1564.3 430.3 1635.7 397.7 1706.8 425.7C1778 453.7 1849 542.3 1920 547C1991 551.7 2062 472.3 2133.2 453.7C2204.3 435 2275.7 477 2346.8 486.3C2418 495.7 2489 472.3 2524.5 460.7L2560 449L2560 265L2524.5 281.3C2489 297.7 2418 330.3 2346.8 332.7C2275.7 335 2204.3 307 2133.2 321C2062 335 1991 391 1920 388.7C1849 386.3 1778 325.7 1706.8 309.3C1635.7 293 1564.3 321 1493.2 356C1422 391 1351 433 1280 435.3C1209 437.7 1138 400.3 1066.8 384C995.7 367.7 924.3 372.3 853.2 386.3C782 400.3 711 423.7 640 442.3C569 461 498 475 426.8 470.3C355.7 465.7 284.3 442.3 213.2 421.3C142 400.3 71 381.7 35.5 372.3L0 363Z" fill="#191616"></path><path d="M0 659L35.5 673C71 687 142 715 213.2 750C284.3 785 355.7 827 426.8 829.3C498 831.7 569 794.3 640 771C711 747.7 782 738.3 853.2 733.7C924.3 729 995.7 729 1066.8 724.3C1138 719.7 1209 710.3 1280 694C1351 677.7 1422 654.3 1493.2 635.7C1564.3 617 1635.7 603 1706.8 628.7C1778 654.3 1849 719.7 1920 708C1991 696.3 2062 607.7 2133.2 577.3C2204.3 547 2275.7 575 2346.8 589C2418 603 2489 603 2524.5 603L2560 603L2560 447L2524.5 458.7C2489 470.3 2418 493.7 2346.8 484.3C2275.7 475 2204.3 433 2133.2 451.7C2062 470.3 1991 549.7 1920 545C1849 540.3 1778 451.7 1706.8 423.7C1635.7 395.7 1564.3 428.3 1493.2 468C1422 507.7 1351 554.3 1280 584.7C1209 615 1138 629 1066.8 615C995.7 601 924.3 559 853.2 545C782 531 711 545 640 577.7C569 610.3 498 661.7 426.8 671C355.7 680.3 284.3 647.7 213.2 605.7C142 563.7 71 512.3 35.5 486.7L0 461Z" fill="#1c1919"></path><path d="M0 771L35.5 773.3C71 775.7 142 780.3 213.2 803.7C284.3 827 355.7 869 426.8 880.7C498 892.3 569 873.7 640 852.7C711 831.7 782 808.3 853.2 806C924.3 803.7 995.7 822.3 1066.8 829.3C1138 836.3 1209 831.7 1280 817.7C1351 803.7 1422 780.3 1493.2 757C1564.3 733.7 1635.7 710.3 1706.8 733.7C1778 757 1849 827 1920 813C1991 799 2062 701 2133.2 659C2204.3 617 2275.7 631 2346.8 652C2418 673 2489 701 2524.5 715L2560 729L2560 601L2524.5 601C2489 601 2418 601 2346.8 587C2275.7 573 2204.3 545 2133.2 575.3C2062 605.7 1991 694.3 1920 706C1849 717.7 1778 652.3 1706.8 626.7C1635.7 601 1564.3 615 1493.2 633.7C1422 652.3 1351 675.7 1280 692C1209 708.3 1138 717.7 1066.8 722.3C995.7 727 924.3 727 853.2 731.7C782 736.3 711 745.7 640 769C569 792.3 498 829.7 426.8 827.3C355.7 825 284.3 783 213.2 748C142 713 71 685 35.5 671L0 657Z" fill="#201d1d"></path><path d="M0 897L35.5 901.7C71 906.3 142 915.7 213.2 939C284.3 962.3 355.7 999.7 426.8 1002C498 1004.3 569 971.7 640 946C711 920.3 782 901.7 853.2 894.7C924.3 887.7 995.7 892.3 1066.8 904C1138 915.7 1209 934.3 1280 932C1351 929.7 1422 906.3 1493.2 880.7C1564.3 855 1635.7 827 1706.8 848C1778 869 1849 939 1920 913.3C1991 887.7 2062 766.3 2133.2 726.7C2204.3 687 2275.7 729 2346.8 761.7C2418 794.3 2489 817.7 2524.5 829.3L2560 841L2560 727L2524.5 713C2489 699 2418 671 2346.8 650C2275.7 629 2204.3 615 2133.2 657C2062 699 1991 797 1920 811C1849 825 1778 755 1706.8 731.7C1635.7 708.3 1564.3 731.7 1493.2 755C1422 778.3 1351 801.7 1280 815.7C1209 829.7 1138 834.3 1066.8 827.3C995.7 820.3 924.3 801.7 853.2 804C782 806.3 711 829.7 640 850.7C569 871.7 498 890.3 426.8 878.7C355.7 867 284.3 825 213.2 801.7C142 778.3 71 773.7 35.5 771.3L0 769Z" fill="#242020"></path><path d="M0 1275L35.5 1261C71 1247 142 1219 213.2 1207.3C284.3 1195.7 355.7 1200.3 426.8 1214.3C498 1228.3 569 1251.7 640 1254C711 1256.3 782 1237.7 853.2 1223.7C924.3 1209.7 995.7 1200.3 1066.8 1205C1138 1209.7 1209 1228.3 1280 1226C1351 1223.7 1422 1200.3 1493.2 1202.7C1564.3 1205 1635.7 1233 1706.8 1240C1778 1247 1849 1233 1920 1223.7C1991 1214.3 2062 1209.7 2133.2 1205C2204.3 1200.3 2275.7 1195.7 2346.8 1205C2418 1214.3 2489 1237.7 2524.5 1249.3L2560 1261L2560 839L2524.5 827.3C2489 815.7 2418 792.3 2346.8 759.7C2275.7 727 2204.3 685 2133.2 724.7C2062 764.3 1991 885.7 1920 911.3C1849 937 1778 867 1706.8 846C1635.7 825 1564.3 853 1493.2 878.7C1422 904.3 1351 927.7 1280 930C1209 932.3 1138 913.7 1066.8 902C995.7 890.3 924.3 885.7 853.2 892.7C782 899.7 711 918.3 640 944C569 969.7 498 1002.3 426.8 1000C355.7 997.7 284.3 960.3 213.2 937C142 913.7 71 904.3 35.5 899.7L0 895Z" fill="#272323"></path><path d="M0 1345L35.5 1328.7C71 1312.3 142 1279.7 213.2 1270.3C284.3 1261 355.7 1275 426.8 1289C498 1303 569 1317 640 1324C711 1331 782 1331 853.2 1324C924.3 1317 995.7 1303 1066.8 1305.3C1138 1307.7 1209 1326.3 1280 1321.7C1351 1317 1422 1289 1493.2 1282C1564.3 1275 1635.7 1289 1706.8 1298.3C1778 1307.7 1849 1312.3 1920 1307.7C1991 1303 2062 1289 2133.2 1275C2204.3 1261 2275.7 1247 2346.8 1251.7C2418 1256.3 2489 1279.7 2524.5 1291.3L2560 1303L2560 1259L2524.5 1247.3C2489 1235.7 2418 1212.3 2346.8 1203C2275.7 1193.7 2204.3 1198.3 2133.2 1203C2062 1207.7 1991 1212.3 1920 1221.7C1849 1231 1778 1245 1706.8 1238C1635.7 1231 1564.3 1203 1493.2 1200.7C1422 1198.3 1351 1221.7 1280 1224C1209 1226.3 1138 1207.7 1066.8 1203C995.7 1198.3 924.3 1207.7 853.2 1221.7C782 1235.7 711 1254.3 640 1252C569 1249.7 498 1226.3 426.8 1212.3C355.7 1198.3 284.3 1193.7 213.2 1205.3C142 1217 71 1245 35.5 1259L0 1273Z" fill="#2b2726"></path><path d="M0 1401L35.5 1401C71 1401 142 1401 213.2 1401C284.3 1401 355.7 1401 426.8 1401C498 1401 569 1401 640 1401C711 1401 782 1401 853.2 1401C924.3 1401 995.7 1401 1066.8 1401C1138 1401 1209 1401 1280 1401C1351 1401 1422 1401 1493.2 1401C1564.3 1401 1635.7 1401 1706.8 1401C1778 1401 1849 1401 1920 1401C1991 1401 2062 1401 2133.2 1401C2204.3 1401 2275.7 1401 2346.8 1401C2418 1401 2489 1401 2524.5 1401L2560 1401L2560 1301L2524.5 1289.3C2489 1277.7 2418 1254.3 2346.8 1249.7C2275.7 1245 2204.3 1259 2133.2 1273C2062 1287 1991 1301 1920 1305.7C1849 1310.3 1778 1305.7 1706.8 1296.3C1635.7 1287 1564.3 1273 1493.2 1280C1422 1287 1351 1315 1280 1319.7C1209 1324.3 1138 1305.7 1066.8 1303.3C995.7 1301 924.3 1315 853.2 1322C782 1329 711 1329 640 1322C569 1315 498 1301 426.8 1287C355.7 1273 284.3 1259 213.2 1268.3C142 1277.7 71 1310.3 35.5 1326.7L0 1343Z" fill="#2f2a29"></path></svg>